<svg version="1.1" id="Layer_1" xmlns="http://www.w3.org/2000/svg" xmlns:xlink="http://www.w3.org/1999/xlink" x="0px" y="0px"
	 width="100%" viewBox="0 0 1913 1882" enable-background="new 0 0 1913 1882" xml:space="preserve">
<path fill="#FFFFFF" opacity="1.000000" stroke="none" 
	d="
M1.000000,931.000000 
	C1.000000,621.032959 1.000000,311.065979 1.000000,1.049473 
	C638.565857,1.049473 1276.131714,1.049473 1914.000000,1.049473 
	C1914.000000,310.699341 1914.000000,620.398743 1913.532959,930.590210 
	C1902.460449,931.092957 1891.854858,931.103821 1881.178955,930.644531 
	C1879.450195,903.602966 1878.299927,876.987671 1876.013794,850.470276 
	C1872.637451,811.308960 1865.645752,772.671936 1856.525024,734.463135 
	C1831.234497,628.516541 1788.644775,530.020386 1728.629028,439.083191 
	C1677.770752,362.021423 1616.474365,294.348694 1545.243042,235.694229 
	C1461.233032,166.517502 1367.770386,114.003258 1265.078369,77.996445 
	C1208.895386,58.297070 1151.433472,43.556629 1092.342041,35.915440 
	C1063.654419,32.205799 1034.827881,29.118448 1005.966003,27.352083 
	C982.568115,25.920115 959.008545,26.315962 935.548645,26.945782 
	C912.939392,27.552769 890.313293,28.923437 867.789185,30.989538 
	C833.163635,34.165684 798.846802,39.537773 764.831421,46.967968 
	C668.080444,68.101875 577.052673,103.741333 491.889191,154.227966 
	C407.668823,204.155487 333.404785,266.081696 268.621796,339.542725 
	C220.551407,394.052429 179.815521,453.540344 145.837234,517.664795 
	C105.859978,593.110657 77.186989,672.703003 59.632664,756.295837 
	C51.932026,792.965942 46.330601,829.951477 43.245537,867.271118 
	C41.490910,888.496826 40.942337,909.822327 39.391380,931.098999 
	C26.288076,931.063477 13.644038,931.031738 1.000000,931.000000 
z"/>
<path fill="#FFFFFF" opacity="1.000000" stroke="none" 
	d="
M1914.000000,962.000000 
	C1914.000000,1268.967163 1914.000000,1575.934204 1914.000000,1882.950684 
	C1276.434448,1882.950684 638.868896,1882.950684 1.000000,1882.950684 
	C1.000000,1576.300659 1.000000,1269.601196 1.468045,962.476562 
	C14.573164,962.046509 27.210238,962.041687 39.896233,962.499634 
	C41.914143,992.342957 43.285927,1021.778809 45.998486,1051.090698 
	C49.650158,1090.550415 57.033501,1129.449829 66.619652,1167.889526 
	C86.660370,1248.251221 116.694000,1324.662598 157.353012,1396.893799 
	C209.674149,1489.842896 276.180817,1571.183960 356.528198,1641.252075 
	C423.499725,1699.655396 497.423981,1747.269043 578.251282,1784.236084 
	C690.321533,1835.492188 808.006653,1862.718750 931.066528,1866.711914 
	C975.875244,1868.165894 1020.594971,1866.425171 1065.198975,1861.253784 
	C1106.068481,1856.515625 1146.437134,1849.347412 1186.322266,1839.306641 
	C1261.757324,1820.316162 1333.552368,1792.083374 1401.791382,1754.756714 
	C1508.205688,1696.548218 1599.520874,1620.143921 1675.982422,1526.119385 
	C1743.531250,1443.054688 1794.907227,1350.837402 1830.197266,1249.686157 
	C1846.670288,1202.469727 1859.734863,1154.333740 1867.552246,1104.968994 
	C1872.514893,1073.630737 1875.682617,1041.986938 1878.907471,1010.403748 
	C1880.545166,994.365662 1880.529053,978.158630 1881.712769,962.034607 
	C1892.776733,962.027466 1903.388306,962.013733 1914.000000,962.000000 
z"/>
<path fill="#020201" opacity="1.000000" stroke="none" 
	d="
M39.847313,962.036926 
	C27.210238,962.041687 14.573164,962.046509 1.468045,962.025635 
	C1.000000,951.979126 1.000000,941.958191 1.000000,931.468628 
	C13.644038,931.031738 26.288076,931.063477 39.430107,931.561096 
	C39.901169,942.030273 39.874241,952.033630 39.847313,962.036926 
z"/>
<path fill="#030302" opacity="1.000000" stroke="none" 
	d="
M1914.000000,961.531372 
	C1903.388306,962.013733 1892.776733,962.027466 1881.652832,961.564331 
	C1881.177002,951.096497 1881.213135,941.105591 1881.249390,931.114624 
	C1891.854858,931.103821 1902.460449,931.092957 1913.532959,931.041077 
	C1914.000000,941.020874 1914.000000,951.041809 1914.000000,961.531372 
z"/>
<path fill="#F7CF46" opacity="1.000000" stroke="none" 
	d="
M1881.178955,930.644531 
	C1881.213135,941.105591 1881.177002,951.096497 1881.200684,961.557739 
	C1880.529053,978.158630 1880.545166,994.365662 1878.907471,1010.403748 
	C1875.682617,1041.986938 1872.514893,1073.630737 1867.552246,1104.968994 
	C1859.734863,1154.333740 1846.670288,1202.469727 1830.197266,1249.686157 
	C1794.907227,1350.837402 1743.531250,1443.054688 1675.982422,1526.119385 
	C1599.520874,1620.143921 1508.205688,1696.548218 1401.791382,1754.756714 
	C1333.552368,1792.083374 1261.757324,1820.316162 1186.322266,1839.306641 
	C1146.437134,1849.347412 1106.068481,1856.515625 1065.198975,1861.253784 
	C1020.594971,1866.425171 975.875244,1868.165894 931.066528,1866.711914 
	C808.006653,1862.718750 690.321533,1835.492188 578.251282,1784.236084 
	C497.423981,1747.269043 423.499725,1699.655396 356.528198,1641.252075 
	C276.180817,1571.183960 209.674149,1489.842896 157.353012,1396.893799 
	C116.694000,1324.662598 86.660370,1248.251221 66.619652,1167.889526 
	C57.033501,1129.449829 49.650158,1090.550415 45.998486,1051.090698 
	C43.285927,1021.778809 41.914143,992.342957 39.896233,962.499634 
	C39.874241,952.033630 39.901169,942.030273 39.889374,931.564941 
	C40.942337,909.822327 41.490910,888.496826 43.245537,867.271118 
	C46.330601,829.951477 51.932026,792.965942 59.632664,756.295837 
	C77.186989,672.703003 105.859978,593.110657 145.837234,517.664795 
	C179.815521,453.540344 220.551407,394.052429 268.621796,339.542725 
	C333.404785,266.081696 407.668823,204.155487 491.889191,154.227966 
	C577.052673,103.741333 668.080444,68.101875 764.831421,46.967968 
	C798.846802,39.537773 833.163635,34.165684 867.789185,30.989538 
	C890.313293,28.923437 912.939392,27.552769 935.548645,26.945782 
	C959.008545,26.315962 982.568115,25.920115 1005.966003,27.352083 
	C1034.827881,29.118448 1063.654419,32.205799 1092.342041,35.915440 
	C1151.433472,43.556629 1208.895386,58.297070 1265.078369,77.996445 
	C1367.770386,114.003258 1461.233032,166.517502 1545.243042,235.694229 
	C1616.474365,294.348694 1677.770752,362.021423 1728.629028,439.083191 
	C1788.644775,530.020386 1831.234497,628.516541 1856.525024,734.463135 
	C1865.645752,772.671936 1872.637451,811.308960 1876.013794,850.470276 
	C1878.299927,876.987671 1879.450195,903.602966 1881.178955,930.644531 
M887.021667,385.644012 
	C862.120667,392.407654 837.560852,400.160095 814.601013,412.161377 
	C798.394531,420.632660 781.695496,428.438843 766.472046,438.451202 
	C741.206970,455.067902 718.642151,475.105408 699.340393,498.568268 
	C688.446655,511.810547 676.849426,524.577454 667.060242,538.599487 
	C654.196167,557.026123 644.313538,577.312195 635.534363,597.992798 
	C630.349365,610.206848 625.931702,622.801392 622.012756,635.485535 
	C615.565430,656.353516 611.744751,677.830017 609.301453,699.515442 
	C607.698486,713.742676 604.903198,728.127075 605.702637,742.268066 
	C607.043640,765.989441 609.992310,789.706970 613.771912,813.183472 
	C619.703918,850.029602 634.473633,883.809082 652.127625,916.463318 
	C670.536743,950.514343 692.307373,982.396606 714.691895,1013.851685 
	C734.898926,1042.246948 752.704895,1072.102905 769.794861,1102.378906 
	C786.697571,1132.322998 798.603577,1164.480225 808.481201,1197.328735 
	C812.062012,1209.236816 815.049011,1221.499756 816.533630,1233.814575 
	C818.167542,1247.367554 822.050659,1252.065552 835.833069,1252.065918 
	C926.149109,1252.068115 1016.465210,1252.067627 1106.781250,1252.063599 
	C1108.613647,1252.063477 1110.456177,1252.122803 1112.276489,1251.959717 
	C1119.539673,1251.308716 1124.925537,1245.406860 1126.155884,1238.427246 
	C1128.659302,1224.226562 1130.875977,1209.886475 1134.738892,1196.029663 
	C1150.821533,1138.338989 1179.432739,1086.604126 1212.315552,1037.105713 
	C1238.826904,997.198242 1267.822388,958.919556 1290.510620,916.528992 
	C1302.059204,894.951782 1313.555298,873.188965 1320.079102,849.597351 
	C1332.234619,805.640015 1339.788452,761.002502 1335.114136,715.003906 
	C1332.264282,686.958862 1328.640503,658.996216 1319.819946,632.227112 
	C1305.743408,589.506470 1286.864990,549.194153 1257.146240,514.574219 
	C1240.083374,494.697540 1223.116333,474.774963 1202.827637,458.128601 
	C1171.544189,432.461304 1136.158203,413.717712 1098.483154,399.473633 
	C1080.491089,392.671173 1062.044922,386.478119 1043.281006,382.442169 
	C1012.418579,375.803925 980.934753,374.437408 949.358398,376.251160 
	C928.548035,377.446564 907.939148,379.851593 887.021667,385.644012 
M818.418335,1445.844482 
	C824.639343,1463.406006 835.393005,1476.126221 853.911499,1482.030640 
	C887.015442,1492.585815 919.848267,1503.987793 952.872803,1514.796143 
	C965.023071,1518.772827 977.504272,1518.968750 989.692749,1514.955444 
	C1023.639954,1503.776855 1057.552368,1492.486450 1091.348022,1480.860596 
	C1097.373901,1478.787476 1103.829102,1475.972168 1108.258057,1471.633545 
	C1119.933594,1460.195801 1126.332764,1446.098999 1126.253052,1429.233521 
	C1126.049927,1386.242188 1126.184937,1343.249268 1126.177734,1300.256958 
	C1126.175415,1286.310425 1120.829224,1280.973145 1106.880371,1280.972900 
	C1016.718140,1280.971436 926.555969,1280.971680 836.393738,1280.972656 
	C821.725708,1280.972778 816.441833,1286.194580 816.438965,1300.728760 
	C816.431702,1338.055420 816.305847,1375.382812 816.518311,1412.708252 
	C816.579651,1423.491455 817.626953,1434.269043 818.418335,1445.844482 
z"/>
<path fill="#020201" opacity="1.000000" stroke="none" 
	d="
M887.396851,385.488770 
	C907.939148,379.851593 928.548035,377.446564 949.358398,376.251160 
	C980.934753,374.437408 1012.418579,375.803925 1043.281006,382.442169 
	C1062.044922,386.478119 1080.491089,392.671173 1098.483154,399.473633 
	C1136.158203,413.717712 1171.544189,432.461304 1202.827637,458.128601 
	C1223.116333,474.774963 1240.083374,494.697540 1257.146240,514.574219 
	C1286.864990,549.194153 1305.743408,589.506470 1319.819946,632.227112 
	C1328.640503,658.996216 1332.264282,686.958862 1335.114136,715.003906 
	C1339.788452,761.002502 1332.234619,805.640015 1320.079102,849.597351 
	C1313.555298,873.188965 1302.059204,894.951782 1290.510620,916.528992 
	C1267.822388,958.919556 1238.826904,997.198242 1212.315552,1037.105713 
	C1179.432739,1086.604126 1150.821533,1138.338989 1134.738892,1196.029663 
	C1130.875977,1209.886475 1128.659302,1224.226562 1126.155884,1238.427246 
	C1124.925537,1245.406860 1119.539673,1251.308716 1112.276489,1251.959717 
	C1110.456177,1252.122803 1108.613647,1252.063477 1106.781250,1252.063599 
	C1016.465210,1252.067627 926.149109,1252.068115 835.833069,1252.065918 
	C822.050659,1252.065552 818.167542,1247.367554 816.533630,1233.814575 
	C815.049011,1221.499756 812.062012,1209.236816 808.481201,1197.328735 
	C798.603577,1164.480225 786.697571,1132.322998 769.794861,1102.378906 
	C752.704895,1072.102905 734.898926,1042.246948 714.691895,1013.851685 
	C692.307373,982.396606 670.536743,950.514343 652.127625,916.463318 
	C634.473633,883.809082 619.703918,850.029602 613.771912,813.183472 
	C609.992310,789.706970 607.043640,765.989441 605.702637,742.268066 
	C604.903198,728.127075 607.698486,713.742676 609.301453,699.515442 
	C611.744751,677.830017 615.565430,656.353516 622.012756,635.485535 
	C625.931702,622.801392 630.349365,610.206848 635.534363,597.992798 
	C644.313538,577.312195 654.196167,557.026123 667.060242,538.599487 
	C676.849426,524.577454 688.446655,511.810547 699.340393,498.568268 
	C718.642151,475.105408 741.206970,455.067902 766.472046,438.451202 
	C781.695496,428.438843 798.394531,420.632660 814.601013,412.161377 
	C837.560852,400.160095 862.120667,392.407654 887.396851,385.488770 
M1258.607056,910.086914 
	C1260.322021,907.045166 1262.086304,904.029968 1263.744019,900.957336 
	C1274.257568,881.469849 1284.702881,861.759949 1290.547974,840.414856 
	C1301.846436,799.155334 1308.889038,757.242981 1303.964600,714.129089 
	C1300.654175,685.145691 1296.041748,656.510193 1285.995605,628.918091 
	C1276.390381,602.536865 1265.053467,576.832581 1248.674072,554.157410 
	C1232.031860,531.118530 1213.389771,509.518433 1192.298828,490.111725 
	C1164.034302,464.104370 1130.846680,446.251709 1095.937256,431.669098 
	C1076.399902,423.507843 1055.820801,417.231354 1035.161011,412.516418 
	C1007.638977,406.235382 979.358521,405.208160 951.179260,407.312256 
	C935.112610,408.511932 918.837891,409.790314 903.211548,413.420593 
	C871.886292,420.697876 841.820190,431.844666 813.392334,447.214630 
	C794.171021,457.606934 775.069397,468.257965 758.707947,482.808502 
	C727.187622,510.840149 699.103271,541.942932 678.853882,579.285828 
	C666.793640,601.526550 656.464355,624.687134 650.430725,649.342834 
	C646.170349,666.752380 642.729736,684.450134 640.372681,702.211609 
	C638.256470,718.158264 637.340759,734.368469 637.361877,750.460449 
	C637.377747,762.545898 639.667114,774.634216 641.035278,786.710938 
	C643.288635,806.601013 647.178833,826.203552 653.796936,845.077637 
	C667.656128,884.602112 688.531982,920.571838 711.841736,955.099121 
	C739.868469,996.613098 769.182739,1037.255493 793.491272,1081.192871 
	C807.053406,1105.706421 818.503967,1131.105469 827.960205,1157.431885 
	C834.992493,1177.010010 840.989380,1196.891479 845.039612,1217.330811 
	C845.307922,1218.684937 846.588135,1220.898071 847.437744,1220.917114 
	C858.343689,1221.161377 869.256836,1221.078369 880.514709,1221.078369 
	C880.081970,1218.778442 879.814697,1217.146851 879.465454,1215.533081 
	C863.314941,1140.919800 846.940247,1066.354126 831.068787,991.681519 
	C818.135559,930.832764 805.788269,869.859497 793.219177,808.933533 
	C791.001526,798.184082 788.430237,787.467285 786.999878,776.606689 
	C785.446838,764.815430 796.489319,756.258484 807.327393,760.244690 
	C814.253723,762.792114 816.656616,768.538940 818.031311,775.287231 
	C830.781250,837.875427 843.367554,900.499207 856.563354,962.993896 
	C871.097839,1031.828491 886.217712,1100.539429 901.097961,1169.300903 
	C904.816589,1186.484741 908.594543,1203.655884 912.324402,1220.737061 
	C913.188904,1220.904053 913.669861,1221.078247 914.150879,1221.078491 
	C951.813782,1221.095703 989.476746,1221.055420 1027.139282,1221.179443 
	C1030.477051,1221.190430 1030.731934,1219.456787 1031.265015,1216.989868 
	C1049.147583,1134.243530 1067.369507,1051.569458 1084.941772,968.757385 
	C1098.752319,903.673645 1111.760620,838.419739 1125.154663,773.247437 
	C1127.140503,763.585022 1134.942627,757.793518 1143.355103,759.558228 
	C1152.776489,761.534546 1157.571655,769.496582 1155.483276,779.631653 
	C1148.366821,814.170288 1141.436768,848.748352 1134.121094,883.244690 
	C1113.280273,981.517761 1092.286133,1079.758301 1071.346924,1178.010620 
	C1068.312988,1192.247437 1065.249390,1206.477783 1062.148438,1220.948975 
	C1073.953247,1220.948975 1085.251587,1220.948975 1096.791016,1220.948975 
	C1097.221313,1219.296265 1097.713867,1217.734741 1098.030640,1216.138306 
	C1104.830444,1181.865845 1116.382080,1149.071655 1130.913208,1117.481079 
	C1148.179321,1079.944946 1169.690796,1044.708374 1192.904907,1010.526367 
	C1215.246216,977.629333 1239.108398,945.723083 1258.607056,910.086914 
z"/>
<path fill="#030201" opacity="1.000000" stroke="none" 
	d="
M818.320312,1445.446777 
	C817.626953,1434.269043 816.579651,1423.491455 816.518311,1412.708252 
	C816.305847,1375.382812 816.431702,1338.055420 816.438965,1300.728760 
	C816.441833,1286.194580 821.725708,1280.972778 836.393738,1280.972656 
	C926.555969,1280.971680 1016.718140,1280.971436 1106.880371,1280.972900 
	C1120.829224,1280.973145 1126.175415,1286.310425 1126.177734,1300.256958 
	C1126.184937,1343.249268 1126.049927,1386.242188 1126.253052,1429.233521 
	C1126.332764,1446.098999 1119.933594,1460.195801 1108.258057,1471.633545 
	C1103.829102,1475.972168 1097.373901,1478.787476 1091.348022,1480.860596 
	C1057.552368,1492.486450 1023.639954,1503.776855 989.692749,1514.955444 
	C977.504272,1518.968750 965.023071,1518.772827 952.872803,1514.796143 
	C919.848267,1503.987793 887.015442,1492.585815 853.911499,1482.030640 
	C835.393005,1476.126221 824.639343,1463.406006 818.320312,1445.446777 
M893.500000,1436.881836 
	C878.729309,1436.881836 863.958618,1436.881836 848.815247,1436.881836 
	C850.898865,1445.972778 856.793945,1450.299927 864.658875,1452.892700 
	C896.213379,1463.295166 927.755127,1473.737671 959.249756,1484.319702 
	C967.603394,1487.126343 975.713501,1487.176880 984.027283,1484.281616 
	C996.260193,1480.021484 1008.588867,1476.037109 1020.861389,1471.889893 
	C1041.319092,1464.976685 1061.751709,1457.989136 1082.222534,1451.115234 
	C1088.944824,1448.857910 1091.722046,1443.483887 1094.305298,1436.881836 
	C1027.302490,1436.881836 960.901245,1436.881836 893.500000,1436.881836 
M909.499878,1342.364502 
	C971.240234,1342.364502 1032.980591,1342.364502 1094.901245,1342.364502 
	C1094.901245,1331.988770 1094.901245,1322.120728 1094.901245,1312.332153 
	C1012.261475,1312.332153 929.942322,1312.332153 847.773560,1312.332153 
	C847.773560,1322.466797 847.773560,1332.207153 847.773560,1342.364746 
	C868.257507,1342.364746 888.378662,1342.364746 909.499878,1342.364502 
M977.499939,1405.304443 
	C1016.590698,1405.304443 1055.681396,1405.304443 1094.986816,1405.304443 
	C1094.986816,1395.017212 1094.986816,1385.277100 1094.986816,1375.388306 
	C1012.410828,1375.388306 930.071594,1375.388306 847.776489,1375.388306 
	C847.776489,1385.466431 847.776489,1395.194824 847.776489,1405.304565 
	C890.930603,1405.304565 933.715271,1405.304565 977.499939,1405.304443 
z"/>
<path fill="#F7CF46" opacity="1.000000" stroke="none" 
	d="
M1258.403564,910.393188 
	C1239.108398,945.723083 1215.246216,977.629333 1192.904907,1010.526367 
	C1169.690796,1044.708374 1148.179321,1079.944946 1130.913208,1117.481079 
	C1116.382080,1149.071655 1104.830444,1181.865845 1098.030640,1216.138306 
	C1097.713867,1217.734741 1097.221313,1219.296265 1096.791016,1220.948975 
	C1085.251587,1220.948975 1073.953247,1220.948975 1062.148438,1220.948975 
	C1065.249390,1206.477783 1068.312988,1192.247437 1071.346924,1178.010620 
	C1092.286133,1079.758301 1113.280273,981.517761 1134.121094,883.244690 
	C1141.436768,848.748352 1148.366821,814.170288 1155.483276,779.631653 
	C1157.571655,769.496582 1152.776489,761.534546 1143.355103,759.558228 
	C1134.942627,757.793518 1127.140503,763.585022 1125.154663,773.247437 
	C1111.760620,838.419739 1098.752319,903.673645 1084.941772,968.757385 
	C1067.369507,1051.569458 1049.147583,1134.243530 1031.265015,1216.989868 
	C1030.731934,1219.456787 1030.477051,1221.190430 1027.139282,1221.179443 
	C989.476746,1221.055420 951.813782,1221.095703 914.150879,1221.078491 
	C913.669861,1221.078247 913.188904,1220.904053 912.324402,1220.737061 
	C908.594543,1203.655884 904.816589,1186.484741 901.097961,1169.300903 
	C886.217712,1100.539429 871.097839,1031.828491 856.563354,962.993896 
	C843.367554,900.499207 830.781250,837.875427 818.031311,775.287231 
	C816.656616,768.538940 814.253723,762.792114 807.327393,760.244690 
	C796.489319,756.258484 785.446838,764.815430 786.999878,776.606689 
	C788.430237,787.467285 791.001526,798.184082 793.219177,808.933533 
	C805.788269,869.859497 818.135559,930.832764 831.068787,991.681519 
	C846.940247,1066.354126 863.314941,1140.919800 879.465454,1215.533081 
	C879.814697,1217.146851 880.081970,1218.778442 880.514709,1221.078369 
	C869.256836,1221.078369 858.343689,1221.161377 847.437744,1220.917114 
	C846.588135,1220.898071 845.307922,1218.684937 845.039612,1217.330811 
	C840.989380,1196.891479 834.992493,1177.010010 827.960205,1157.431885 
	C818.503967,1131.105469 807.053406,1105.706421 793.491272,1081.192871 
	C769.182739,1037.255493 739.868469,996.613098 711.841736,955.099121 
	C688.531982,920.571838 667.656128,884.602112 653.796936,845.077637 
	C647.178833,826.203552 643.288635,806.601013 641.035278,786.710938 
	C639.667114,774.634216 637.377747,762.545898 637.361877,750.460449 
	C637.340759,734.368469 638.256470,718.158264 640.372681,702.211609 
	C642.729736,684.450134 646.170349,666.752380 650.430725,649.342834 
	C656.464355,624.687134 666.793640,601.526550 678.853882,579.285828 
	C699.103271,541.942932 727.187622,510.840149 758.707947,482.808502 
	C775.069397,468.257965 794.171021,457.606934 813.392334,447.214630 
	C841.820190,431.844666 871.886292,420.697876 903.211548,413.420593 
	C918.837891,409.790314 935.112610,408.511932 951.179260,407.312256 
	C979.358521,405.208160 1007.638977,406.235382 1035.161011,412.516418 
	C1055.820801,417.231354 1076.399902,423.507843 1095.937256,431.669098 
	C1130.846680,446.251709 1164.034302,464.104370 1192.298828,490.111725 
	C1213.389771,509.518433 1232.031860,531.118530 1248.674072,554.157410 
	C1265.053467,576.832581 1276.390381,602.536865 1285.995605,628.918091 
	C1296.041748,656.510193 1300.654175,685.145691 1303.964600,714.129089 
	C1308.889038,757.242981 1301.846436,799.155334 1290.547974,840.414856 
	C1284.702881,861.759949 1274.257568,881.469849 1263.744019,900.957336 
	C1262.086304,904.029968 1260.322021,907.045166 1258.403564,910.393188 
M1018.141541,774.366211 
	C1008.819946,766.313477 999.731079,757.968872 990.107605,750.294739 
	C981.472473,743.408752 971.706482,739.909851 960.943542,745.526978 
	C956.706299,747.738403 952.683472,750.549194 949.012756,753.624023 
	C934.365112,765.894043 919.894531,778.375427 905.233398,790.885132 
	C903.684570,789.642639 902.370361,788.643555 901.116394,787.573853 
	C887.428406,775.896851 873.816650,764.128784 860.006653,752.598083 
	C857.547974,750.545288 854.432617,748.755066 851.349670,748.079285 
	C844.227783,746.518250 837.904907,749.989807 834.811707,756.317444 
	C831.481689,763.129517 833.019043,770.065125 839.408875,775.554260 
	C857.353638,790.969482 875.366699,806.305176 893.375610,821.645569 
	C901.610840,828.660522 908.726685,828.605774 916.975830,821.562439 
	C933.573364,807.391113 950.269653,793.332642 966.692078,778.961304 
	C970.408142,775.709229 972.711731,775.572632 976.497009,778.919983 
	C993.086975,793.590576 1009.942261,807.962341 1026.770142,822.362122 
	C1033.451416,828.079346 1040.936401,828.616028 1047.236572,823.322083 
	C1066.367920,807.246521 1085.390991,791.038452 1104.254883,774.650452 
	C1111.081055,768.720337 1111.353882,759.226868 1105.576538,752.746033 
	C1100.065308,746.563721 1090.777222,745.942749 1083.985962,751.455750 
	C1079.460449,755.129395 1075.100708,759.007202 1070.663330,762.789551 
	C1059.665161,772.164490 1048.664917,781.537231 1037.624023,790.946228 
	C1031.099731,785.401306 1024.882935,780.117676 1018.141541,774.366211 
z"/>
<path fill="#F6CE46" opacity="1.000000" stroke="none" 
	d="
M894.000000,1436.881836 
	C960.901245,1436.881836 1027.302490,1436.881836 1094.305298,1436.881836 
	C1091.722046,1443.483887 1088.944824,1448.857910 1082.222534,1451.115234 
	C1061.751709,1457.989136 1041.319092,1464.976685 1020.861389,1471.889893 
	C1008.588867,1476.037109 996.260193,1480.021484 984.027283,1484.281616 
	C975.713501,1487.176880 967.603394,1487.126343 959.249756,1484.319702 
	C927.755127,1473.737671 896.213379,1463.295166 864.658875,1452.892700 
	C856.793945,1450.299927 850.898865,1445.972778 848.815247,1436.881836 
	C863.958618,1436.881836 878.729309,1436.881836 894.000000,1436.881836 
z"/>
<path fill="#F7CF46" opacity="1.000000" stroke="none" 
	d="
M908.999878,1342.364624 
	C888.378662,1342.364746 868.257507,1342.364746 847.773560,1342.364746 
	C847.773560,1332.207153 847.773560,1322.466797 847.773560,1312.332153 
	C929.942322,1312.332153 1012.261475,1312.332153 1094.901245,1312.332153 
	C1094.901245,1322.120728 1094.901245,1331.988770 1094.901245,1342.364502 
	C1032.980591,1342.364502 971.240234,1342.364502 908.999878,1342.364624 
z"/>
<path fill="#F6CE46" opacity="1.000000" stroke="none" 
	d="
M976.999878,1405.304443 
	C933.715271,1405.304565 890.930603,1405.304565 847.776489,1405.304565 
	C847.776489,1395.194824 847.776489,1385.466431 847.776489,1375.388306 
	C930.071594,1375.388306 1012.410828,1375.388306 1094.986816,1375.388306 
	C1094.986816,1385.277100 1094.986816,1395.017212 1094.986816,1405.304443 
	C1055.681396,1405.304443 1016.590698,1405.304443 976.999878,1405.304443 
z"/>
<path fill="#020201" opacity="1.000000" stroke="none" 
	d="
M1018.403809,774.600098 
	C1024.882935,780.117676 1031.099731,785.401306 1037.624023,790.946228 
	C1048.664917,781.537231 1059.665161,772.164490 1070.663330,762.789551 
	C1075.100708,759.007202 1079.460449,755.129395 1083.985962,751.455750 
	C1090.777222,745.942749 1100.065308,746.563721 1105.576538,752.746033 
	C1111.353882,759.226868 1111.081055,768.720337 1104.254883,774.650452 
	C1085.390991,791.038452 1066.367920,807.246521 1047.236572,823.322083 
	C1040.936401,828.616028 1033.451416,828.079346 1026.770142,822.362122 
	C1009.942261,807.962341 993.086975,793.590576 976.497009,778.919983 
	C972.711731,775.572632 970.408142,775.709229 966.692078,778.961304 
	C950.269653,793.332642 933.573364,807.391113 916.975830,821.562439 
	C908.726685,828.605774 901.610840,828.660522 893.375610,821.645569 
	C875.366699,806.305176 857.353638,790.969482 839.408875,775.554260 
	C833.019043,770.065125 831.481689,763.129517 834.811707,756.317444 
	C837.904907,749.989807 844.227783,746.518250 851.349670,748.079285 
	C854.432617,748.755066 857.547974,750.545288 860.006653,752.598083 
	C873.816650,764.128784 887.428406,775.896851 901.116394,787.573853 
	C902.370361,788.643555 903.684570,789.642639 905.233398,790.885132 
	C919.894531,778.375427 934.365112,765.894043 949.012756,753.624023 
	C952.683472,750.549194 956.706299,747.738403 960.943542,745.526978 
	C971.706482,739.909851 981.472473,743.408752 990.107605,750.294739 
	C999.731079,757.968872 1008.819946,766.313477 1018.403809,774.600098 
z"/>
</svg>